<svg xmlns="http://www.w3.org/2000/svg" viewBox="0 0 1037.78 190.8"><defs><style>.cls-1{fill:#fac11a;}.cls-2{fill:#121820;}.cls-3{fill:#231f20;}</style></defs><title>Asset 1</title><g id="Layer_2" data-name="Layer 2"><g id="Layer_1-2" data-name="Layer 1"><path class="cls-1" d="M86.64,97.87a8.81,8.81,0,1,0,8.81-8.81A8.82,8.82,0,0,0,86.64,97.87Z"/><circle class="cls-1" cx="165.91" cy="97.29" r="8.81"/><path class="cls-1" d="M165.91,157.66a8.81,8.81,0,1,0,8.81,8.81A8.82,8.82,0,0,0,165.91,157.66Z"/><path class="cls-1" d="M185.46,9.42a24.94,24.94,0,0,0-36.61-2.64c-.36.34-.73.68-1.12,1l-2.27,1.81a24,24,0,0,1-32.11-2L113,7.3A24.81,24.81,0,0,0,102,.89h0Q100.8.56,99.58.35c-.23,0-.46-.05-.69-.08C98.29.18,97.7.1,97.1.06c-.35,0-.7,0-1.06,0s-1,0-1.43,0-.86.07-1.29.1-.79,0-1.18.1-1,.17-1.44.26-.68.11-1,.19c-.51.12-1,.28-1.52.43-.29.09-.59.16-.88.26-.53.18-1,.4-1.55.62-.26.11-.53.2-.79.32-.53.24-1,.53-1.55.81-.23.13-.47.24-.7.38-.52.31-1,.66-1.52,1-.21.15-.43.28-.63.43-.5.37-1,.78-1.44,1.19-.19.17-.39.32-.58.49l-.2.17c-.36.34-.73.68-1.12,1L74.93,9.58A23.94,23.94,0,0,1,43,7.8c-.14-.15-.3-.29-.44-.43l-.06-.07,0,0c-.37-.37-.72-.75-1.12-1.09A24.65,24.65,0,0,0,29.14.36l-.22,0c-.69-.11-1.38-.2-2.08-.25L26,0c-.5,0-1,0-1.51,0l-.95,0c-.48,0-1,.06-1.43.11l-.91.12q-.77.11-1.53.28l-.74.17c-.61.15-1.2.32-1.8.51l-.43.14A24.49,24.49,0,0,0,8.43,6.18c-.13.12-.24.25-.37.36l0,0A25.46,25.46,0,0,0,6.21,8.42l0,0L6,8.73a24.75,24.75,0,0,0-4.4,7.45l0,.06c-.25.67-.46,1.36-.65,2l0,.1c-.19.7-.34,1.4-.47,2.1v.06a25,25,0,0,0,.74,11.76c.16.51.31,1,.5,1.52.06.15.13.3.19.44.26.64.54,1.28.85,1.9l.11.2q.54,1.06,1.2,2.07v0A24.36,24.36,0,0,0,6.18,41.4c.34.38.71.72,1.06,1.08l0,0,0,0c.3.3.6.61.91.9A23.36,23.36,0,0,1,8.06,77a25.1,25.1,0,0,0-3.74,4.34l-.1.15q-.68,1-1.26,2.09l-.17.32q-.51,1-.93,2l-.19.48q-.36.95-.65,1.92c-.06.21-.13.43-.18.64-.16.59-.29,1.19-.4,1.79-.05.27-.1.54-.15.82C.2,92.1.14,92.64.1,93.19c0,.33-.06.66-.08,1s0,1,0,1.43,0,.79,0,1.19S.1,97.59.14,98s.09,1,.17,1.42c0,.28.11.56.17.83.11.58.23,1.15.38,1.72,0,.11.07.21.1.32a24.82,24.82,0,0,0,7.11,11.47,23.37,23.37,0,0,1-.19,33.89c-.11.1-.2.21-.3.31-.48.46-1,.93-1.41,1.44l-.18.22-.24.3q-.71.85-1.33,1.74c-.14.2-.27.4-.4.6-.32.49-.62,1-.91,1.5-.16.28-.31.56-.45.84s-.41.85-.6,1.29-.32.72-.46,1.09-.21.6-.31.9A25,25,0,0,0,0,165.73c0,.08,0,.15,0,.23,0,.66,0,1.32.09,2,0,.11,0,.22,0,.33.06.65.14,1.29.25,1.93,0,.11,0,.22.07.33a24.8,24.8,0,0,0,1.49,4.95c.19.46.38.92.6,1.37.13.26.27.52.41.78.27.51.55,1,.86,1.5l.43.65q.53.78,1.12,1.53l.44.55c.13.16.25.33.39.48s.56.57.84.86.46.48.7.72c.44.42.9.81,1.36,1.19.2.16.37.34.57.5l.24.17.6.43c.49.35,1,.68,1.48,1l.54.32q.83.48,1.69.89l.43.21c.71.32,1.42.61,2.15.86l0,0q1.15.39,2.33.67l.36.07c.62.14,1.25.25,1.89.34l.75.09c.52.06,1,.1,1.55.12l.83,0c.53,0,1.05,0,1.58,0l.72,0a25.1,25.1,0,0,0,4.59-.79l.41-.12q.95-.27,1.88-.62l.46-.18q.94-.38,1.85-.83l.33-.16a24.35,24.35,0,0,0,4.06-2.61l.13-.11.27-.24c.61-.51,1.21-1,1.76-1.59l.61-.64a23.38,23.38,0,0,1,34,.07,24.93,24.93,0,1,0,1.13-35.16c-.36.34-.73.68-1.12,1l-2.27,1.81a24,24,0,0,1-32-1.83c-.31-.33-.62-.67-.91-1l-1.82-2.27a23.94,23.94,0,0,1,1.81-31.93A24.81,24.81,0,0,0,49.8,95.78c0-.41,0-.81,0-1.22,0-.14,0-.28,0-.42a24.81,24.81,0,0,0-6.91-16c-.28-.3-.56-.6-.81-.92l-1.82-2.27a24,24,0,0,1,1.94-32.07c.11-.1.22-.19.33-.3l.65-.69a23.38,23.38,0,0,1,34,.07c.26.28.55.52.83.79s.55.55.84.8.77.65,1.17,1,.62.49.94.72.8.54,1.21.8.68.43,1,.62.82.44,1.24.65.74.35,1.11.52.83.34,1.25.5.79.28,1.19.4.83.25,1.25.36.84.2,1.26.28.82.16,1.23.22.89.11,1.33.15.79.08,1.19.09.94,0,1.41,0,.76,0,1.13,0,1-.08,1.48-.14.7-.07,1-.13c.53-.08,1.06-.2,1.58-.32.31-.07.61-.12.91-.2.59-.16,1.17-.35,1.75-.55.23-.08.47-.14.7-.23.72-.27,1.42-.59,2.11-.93l.26-.12a24.89,24.89,0,0,0,6.4-4.63l.65-.69a23.38,23.38,0,0,1,34,.07A24.93,24.93,0,0,0,185.46,9.42Z"/><path class="cls-2" d="M317.08,81.19a37.31,37.31,0,0,0-10.36-7.8,29.06,29.06,0,0,0-12.93-2.66,28.56,28.56,0,0,0-12.73,2.66A25.93,25.93,0,0,0,272,80.7a32.78,32.78,0,0,0-5.53,10.66,41.84,41.84,0,0,0-1.88,12.53,35,35,0,0,0,2.17,12.33,31,31,0,0,0,6.12,10.16,28.12,28.12,0,0,0,9.47,6.81,30.14,30.14,0,0,0,12.43,2.47A28.42,28.42,0,0,0,307.6,133a32.86,32.86,0,0,0,9.87-7.8l12.63,12.63A39.75,39.75,0,0,1,314,148.88a56.2,56.2,0,0,1-19.44,3.35,53.48,53.48,0,0,1-19.83-3.55,45.78,45.78,0,0,1-15.49-10,44,44,0,0,1-10.06-15.39,53.47,53.47,0,0,1-3.55-19.83,54.26,54.26,0,0,1,3.55-19.93,44.48,44.48,0,0,1,25.36-25.75,52.77,52.77,0,0,1,20-3.65,53.69,53.69,0,0,1,19.64,3.65A43.26,43.26,0,0,1,330.5,69Z"/><path class="cls-2" d="M337.65,103.1A47.62,47.62,0,0,1,341.5,84a49.84,49.84,0,0,1,10.56-15.59,50.25,50.25,0,0,1,70.65,0A49.91,49.91,0,0,1,433.27,84a47.62,47.62,0,0,1,3.85,19.14,48.64,48.64,0,0,1-14.41,34.83,50.11,50.11,0,0,1-15.79,10.46,51.5,51.5,0,0,1-39.07,0,50,50,0,0,1-15.79-10.46,48.65,48.65,0,0,1-14.41-34.83Zm18.95,0a38.36,38.36,0,0,0,2.17,13.12,29.51,29.51,0,0,0,6.12,10.26,28.28,28.28,0,0,0,9.67,6.71,34.59,34.59,0,0,0,25.66,0,28.33,28.33,0,0,0,9.67-6.71A29.61,29.61,0,0,0,416,116.22,40.76,40.76,0,0,0,416,90a29.67,29.67,0,0,0-6.12-10.26A28.42,28.42,0,0,0,400.21,73a34.59,34.59,0,0,0-25.66,0,28.37,28.37,0,0,0-9.67,6.71A29.57,29.57,0,0,0,358.77,90,38.37,38.37,0,0,0,356.6,103.1Z"/><path class="cls-2" d="M449.89,22.78a12.53,12.53,0,0,1,3.85-9.18,12.87,12.87,0,0,1,18.35,0,12.53,12.53,0,0,1,3.85,9.18A12.53,12.53,0,0,1,472.09,32a12.87,12.87,0,0,1-18.35,0A12.52,12.52,0,0,1,449.89,22.78ZM454,56.33h17.76v93.54H454Z"/><path class="cls-2" d="M496.91,56.33h17.76V70.73h.4q3.35-7.5,11.64-12.14A38.57,38.57,0,0,1,545.85,54,40.57,40.57,0,0,1,558.77,56a29.19,29.19,0,0,1,10.85,6.41A31,31,0,0,1,577,73.59a42.64,42.64,0,0,1,2.76,16.08v60.19H562V94.61a31.19,31.19,0,0,0-1.78-11.15,20.4,20.4,0,0,0-4.74-7.5,17.83,17.83,0,0,0-6.81-4.14,25.13,25.13,0,0,0-8-1.28,29,29,0,0,0-10.26,1.78,21.39,21.39,0,0,0-8.29,5.62,26.54,26.54,0,0,0-5.52,9.77,44.4,44.4,0,0,0-2,14v48.15H496.91Z"/><path class="cls-2" d="M691.78,149.87H674V136.45h-.4a33.81,33.81,0,0,1-14.11,11.64,43.59,43.59,0,0,1-18.45,4.15,49.57,49.57,0,0,1-19.64-3.75,43.33,43.33,0,0,1-15-10.46,47.24,47.24,0,0,1-9.57-15.59,54.25,54.25,0,0,1-3.35-19.34,55.06,55.06,0,0,1,3.35-19.44,46,46,0,0,1,9.57-15.59,44.07,44.07,0,0,1,15-10.36A49.57,49.57,0,0,1,641.06,54,43.41,43.41,0,0,1,660,58.2a32.41,32.41,0,0,1,13.62,11.55h.4V.67h17.76Zm-48.55-14.21a32.07,32.07,0,0,0,12.83-2.47,28.33,28.33,0,0,0,9.67-6.71,29.65,29.65,0,0,0,6.12-10.26,40.74,40.74,0,0,0,0-26.25,29.71,29.71,0,0,0-6.12-10.26A28.42,28.42,0,0,0,656.06,73a34.58,34.58,0,0,0-25.65,0,28.36,28.36,0,0,0-9.67,6.71A29.58,29.58,0,0,0,614.62,90a40.74,40.74,0,0,0,0,26.25,29.52,29.52,0,0,0,6.12,10.26,28.27,28.27,0,0,0,9.67,6.71A32.06,32.06,0,0,0,643.23,135.66Z"/><path class="cls-2" d="M727.1,109.61a23.45,23.45,0,0,0,2.67,11.15,27.64,27.64,0,0,0,7,8.58,32.31,32.31,0,0,0,10.06,5.53,36,36,0,0,0,11.84,2A26.5,26.5,0,0,0,773.08,133a46.46,46.46,0,0,0,11.25-10.16l13.42,10.26q-14.8,19.14-41.44,19.14a51.54,51.54,0,0,1-20-3.75,43.55,43.55,0,0,1-15.2-10.36,45.92,45.92,0,0,1-9.57-15.59,55,55,0,0,1-3.35-19.44,51.1,51.1,0,0,1,3.65-19.44,48.21,48.21,0,0,1,10.07-15.59,45.92,45.92,0,0,1,15.3-10.36A49.24,49.24,0,0,1,756.51,54q12.43,0,21,4.34a41.57,41.57,0,0,1,14.11,11.35,44.86,44.86,0,0,1,8,15.79,65.75,65.75,0,0,1,2.47,17.86v6.31Zm56-14.21a37.48,37.48,0,0,0-1.88-10.85,23.92,23.92,0,0,0-5-8.59,23.22,23.22,0,0,0-8.39-5.72,30.68,30.68,0,0,0-11.74-2.07,28.5,28.5,0,0,0-11.94,2.47A29.08,29.08,0,0,0,735,77a29.63,29.63,0,0,0-5.82,8.78,24.18,24.18,0,0,0-2.07,9.57Z"/><path class="cls-2" d="M870,79.81a27.29,27.29,0,0,0-7.8-6.61,22.46,22.46,0,0,0-11.35-2.66,21.61,21.61,0,0,0-11,2.66A8.49,8.49,0,0,0,835.3,81,8.89,8.89,0,0,0,838,87.7a21,21,0,0,0,6.31,4.14,36.73,36.73,0,0,0,7.8,2.37q4.14.79,7.1,1.38A82.91,82.91,0,0,1,869.94,99a29.8,29.8,0,0,1,8.68,5.13,22.26,22.26,0,0,1,5.72,7.7,26.53,26.53,0,0,1,2.07,11.05,25.93,25.93,0,0,1-3.35,13.52,28.33,28.33,0,0,1-8.69,9.18,36.55,36.55,0,0,1-12.13,5.13,60.66,60.66,0,0,1-13.72,1.58,54.2,54.2,0,0,1-20.43-3.55q-8.78-3.55-15.69-13l13.42-11.05a55,55,0,0,0,9.67,7.7,23.94,23.94,0,0,0,13,3.35,34.49,34.49,0,0,0,6.81-.69,21.07,21.07,0,0,0,6.12-2.17,13.42,13.42,0,0,0,4.34-3.75,8.58,8.58,0,0,0,1.68-5.23,9,9,0,0,0-2.47-6.51,17.94,17.94,0,0,0-5.92-4,43.08,43.08,0,0,0-7.3-2.37q-3.84-.89-6.81-1.48-5.73-1.38-10.86-3.16a33,33,0,0,1-9.08-4.74,21.84,21.84,0,0,1-6.31-7.5,24.14,24.14,0,0,1-2.37-11.25A25.5,25.5,0,0,1,819.41,70a27.22,27.22,0,0,1,8.09-9A36.61,36.61,0,0,1,839,55.73,48.21,48.21,0,0,1,851.88,54,47.53,47.53,0,0,1,870,57.51a28.77,28.77,0,0,1,13.81,11.84Z"/><path class="cls-2" d="M903,.67h17.76V97L961,56.52h24.67L942.06,99l47.36,50.92H964.17l-43.42-48.55v48.55H903Z"/><path class="cls-3" d="M992.7,22.54a21.62,21.62,0,0,1,1.79-8.75,22.91,22.91,0,0,1,12-12,22.33,22.33,0,0,1,17.51,0,22.91,22.91,0,0,1,12,12,21.63,21.63,0,0,1,1.79,8.75,21.63,21.63,0,0,1-1.79,8.75,22.91,22.91,0,0,1-12,12,22.33,22.33,0,0,1-17.51,0,22.91,22.91,0,0,1-12-12A21.61,21.61,0,0,1,992.7,22.54Zm4,0a18.11,18.11,0,0,0,1.45,7.21,18.47,18.47,0,0,0,9.87,9.87,18.6,18.6,0,0,0,14.42,0,18.47,18.47,0,0,0,9.87-9.87,18.6,18.6,0,0,0,0-14.42,18.47,18.47,0,0,0-9.87-9.87,18.6,18.6,0,0,0-14.42,0,18.47,18.47,0,0,0-9.87,9.87A18.11,18.11,0,0,0,996.7,22.54Zm9.87-13h9.94q4.66,0,6.88,2a7.36,7.36,0,0,1,2.21,5.76,6.81,6.81,0,0,1-1.74,5.09,7.26,7.26,0,0,1-4.38,2l6.66,10.9h-5l-6.42-10.54h-3.45V35.26h-4.73Zm4.73,11.21h3.45q1.09,0,2.18-.09a6.54,6.54,0,0,0,2-.45,3.34,3.34,0,0,0,1.42-1.09,3.26,3.26,0,0,0,.55-2,3.26,3.26,0,0,0-.55-2A3.34,3.34,0,0,0,1018.9,14a6,6,0,0,0-2-.42q-1.09-.06-2.18-.06h-3.45Z"/></g></g></svg>