<?xml version="1.0" encoding="utf-8"?>
<!-- Generator: Adobe Illustrator 20.0.0, SVG Export Plug-In . SVG Version: 6.00 Build 0)  -->
<svg version="1.1" id="Layer_1" xmlns="http://www.w3.org/2000/svg" xmlns:xlink="http://www.w3.org/1999/xlink" x="0px" y="0px"
	 viewBox="0 0 112.8 17" style="enable-background:new 0 0 112.8 17;" xml:space="preserve">
<style type="text/css">
	.st0{fill-rule:evenodd;clip-rule:evenodd;}
	.st1{fill-rule:evenodd;clip-rule:evenodd;fill:#FFFFFF;}
</style>
<g>
	<path class="st0" d="M104,0.8c0.3-0.1,0.5-0.3,0.8-0.5c2.2,0,5,0,8.1,0c-0.2,1-0.5,1.9-0.7,2.9c-0.9,0.9-1.8,1.7-2.8,2.5
		c-0.7,2.8-1.5,5.6-2.2,8.4c-1.2,0.8-2.3,1.8-3.5,2.6c-1.2-0.1-2.4,0-3.7,0c0.1-0.6,0.3-1.3,0.4-2.1c-0.4,0.1-0.7,0.4-1.1,0.6
		c-0.3,0.2-0.7,0.4-1,0.6c-1.2,0.7-2.7,1.2-4.6,0.9c-1.3-0.2-2-0.8-2.8-1.7c-1.5,1.2-4.5,2.3-7,1.5c-1.6-0.5-2.4-2-2.1-4.1
		c-0.5,0-1.1,0.2-1.8,0.2c-0.2,0.4-0.3,1-0.5,1.5c-0.8,0.6-1.7,1.3-2.6,2c-0.3,0.2-0.6,0.6-0.9,0.7c-0.6,0.2-1.3-0.1-1.9,0
		c-0.6,0-1.2,0.1-1.9,0c1-3.8,2.1-8.1,3.3-12.2c0.1-0.5,0.2-1.3,0.5-1.7c0.1-0.2,0.5-0.5,0.7-0.7c0.8-0.7,1.6-1.2,2.4-1.9
		c1.1,0,2.2,0,3.4,0c1.2,0,2.4-0.1,3.4,0c0.4,0,0.7,0.3,1,0.4c0.2,0.3,0.4,0.6,0.7,0.9c0.7-0.4,1.4-1,2.4-1.3
		C90.8,0.1,92,0.1,93,0.1c1.4,0,2.6,0.6,3.1,1.7c1-0.8,2.1-1.6,3.8-1.7C101.5-0.1,102.9,0.1,104,0.8z M103.5,1.2
		c-0.7-0.5-1.7-0.7-2.8-0.7c-0.7,0-1.1,0.2-1.7,0.3c-1.1,0.2-2,0.9-2.6,1.6C96,3,95.7,4.5,95.9,5.3c0.2,0.8,0.8,1.3,1.3,2
		c0.5,0.7,1.1,1.2,1.5,1.8c0.1,0.2,0.3,0.5,0.4,0.7c0.2,0.8-0.2,1.8-1.2,1.7c-0.1,0-0.1-0.1-0.2-0.1c-0.1,0-0.1,0-0.2,0
		c-0.8-0.4-0.5-1.1-0.3-2c-0.9,0-2.1,0-2.9,0c-0.2,0.8-0.5,1.4-0.5,2.3c0.1,1.6,1.6,2.3,3.2,2.3c1.4,0,2.4-0.3,3.3-0.8
		c0.5-0.3,1-0.6,1.3-1c0.6-0.7,1-2,0.9-3.1c-0.1-1.2-0.9-1.9-1.6-2.6c-0.6-0.6-1.3-1.1-1.6-1.7c-0.2-0.4-0.3-1-0.2-1.3
		c0.1-0.3,0.7-0.6,1.1-0.5c1,0.2,0.7,1.5,0.5,2.2c0.9,0.1,1.9,0,2.7,0C104,4,104.5,2.1,103.5,1.2z M88.9,1.5
		c-0.4,0.2-0.5,0.4-0.8,0.7c-0.2,0.2-0.4,0.4-0.5,0.6c-0.2,0.3-0.2,0.7-0.3,1.1C86.6,6,86,8.2,85.5,10.2c-0.1,0.4-0.2,0.7-0.3,1.1
		c-0.2,1.3,0.6,2.3,1.8,2.5c2.1,0.5,4.5,0,5.6-1.2c0.3-0.3,0.6-0.8,0.8-1.2c0.2-0.6,0.4-1.3,0.6-2.1c0.4-1.4,0.8-2.8,1.2-4.1
		c0.2-0.7,0.5-1.5,0.5-2.2c0.1-0.6,0-1.2-0.3-1.6c-0.2-0.3-1-0.7-1.5-0.8c-0.7-0.2-1.8-0.2-2.2-0.1C90.6,0.7,89.5,1.1,88.9,1.5z
		 M105.1,0.9c-0.2,0.7-0.4,1.3-0.5,2.1c0.6,0,1.3,0,1.9,0c-0.9,3.5-1.9,6.9-2.7,10.4c0.8,0.1,1.9,0.1,2.8,0c1-3.5,1.9-6.8,2.8-10.3
		c0.6,0,1.4,0.1,2.1,0c0.2-0.7,0.4-1.5,0.6-2.2C109.4,0.9,107.3,0.9,105.1,0.9z M85,8.7c0.4-0.4,0.6-1,0.8-1.7
		c0.4-1,0.6-1.8,0.8-2.9C86.8,3.6,87,3.1,87,2.6c0-0.8-0.4-1.5-1.1-1.7c-0.4-0.1-1.1,0-1.6,0c-1.7,0-3.2,0-4.8,0
		c-1.1,4.2-2.3,8.3-3.3,12.5c0.8,0,2.1,0.1,2.8,0c0.4-1.3,0.7-2.6,1.1-3.8C82.1,9.8,83.8,9.8,85,8.7z"/>
	<path class="st1" d="M51.1,0.4c2-0.2,3.9,0,4.2,1.6c0,0.2,0,0.6,0,0.8c-0.1,0.7-0.3,1.5-0.5,2.2c-0.4,1.4-0.7,2.8-1.1,4.2
		c-0.2,0.8-0.4,1.5-0.6,2.1c-0.3,0.7-1,1.4-1.6,1.8c-1.1,0.7-3.5,1.2-5.1,0.6c-0.4-0.1-1.3-0.6-1.4-1.1c-0.3-1.1,0.3-2.3,0.5-3.4
		c0.4-1.7,0.9-3.5,1.3-5.2c0.2-0.8,0.4-1.2,0.7-1.8C48.4,1.3,49.5,0.6,51.1,0.4z M51.2,7.4c0.2-0.9,0.6-2,0.8-2.9
		c0.1-0.3,0.2-0.8,0.2-1c-0.1-0.8-1.6-0.5-1.9,0C50.1,3.6,50,4,50,4.3c-0.4,1.6-0.8,3.1-1.3,4.7c-0.2,0.7-0.7,1.8-0.3,2.3
		c0.5,0.3,1.3,0.2,1.7-0.2C50.5,10,50.8,8.7,51.2,7.4z"/>
	<path class="st1" d="M46.5,0.5c0.1,0,0.1,0,0.1,0c0,0.1,0,0.1,0,0.2c-0.1,0-0.1,0-0.1,0C46.4,0.7,46.4,0.5,46.5,0.5z"/>
	<path class="st1" d="M103.5,5.1c-0.8,0-1.9,0-2.7,0c0.2-0.7,0.5-2.1-0.5-2.2c-0.4-0.1-1,0.2-1.1,0.5c-0.1,0.4-0.1,0.9,0.2,1.3
		c0.3,0.6,1.1,1.1,1.6,1.7c0.7,0.7,1.5,1.4,1.6,2.6c0.1,1.2-0.3,2.4-0.9,3.1c-0.3,0.4-0.8,0.7-1.3,1c-0.9,0.5-1.9,0.9-3.3,0.8
		c-1.6,0-3.1-0.7-3.2-2.3c0-0.9,0.3-1.5,0.5-2.3c0.8-0.1,2,0,2.9,0c-0.1,0.8-0.4,1.6,0.3,2c0.1,0,0.1,0,0.2,0c0,0,0.1,0.1,0.2,0.1
		c1,0.1,1.4-0.9,1.2-1.7c-0.1-0.2-0.3-0.5-0.4-0.7c-0.4-0.6-1-1.1-1.5-1.8c-0.5-0.6-1.1-1.2-1.3-2C95.7,4.5,96,3,96.5,2.4
		C97,1.7,97.9,1,99,0.8c0.5-0.1,1-0.3,1.7-0.3c1.1,0,2.1,0.2,2.8,0.7C104.5,2.1,104,4,103.5,5.1z"/>
	<path class="st1" d="M91.6,0.6c0.5-0.1,1.6-0.1,2.2,0.1c0.6,0.2,1.3,0.5,1.5,0.8c0.3,0.4,0.3,1,0.3,1.6c-0.1,0.7-0.3,1.4-0.5,2.2
		c-0.3,1.4-0.8,2.8-1.2,4.1c-0.2,0.7-0.4,1.5-0.6,2.1c-0.2,0.4-0.6,0.9-0.8,1.2c-1.1,1.2-3.5,1.7-5.6,1.2c-1.1-0.3-1.9-1.2-1.8-2.5
		c0.1-0.4,0.2-0.7,0.3-1.1C86,8.2,86.6,6,87.3,3.8c0.1-0.3,0.1-0.8,0.3-1.1c0.1-0.2,0.3-0.4,0.5-0.6c0.3-0.3,0.5-0.5,0.8-0.7
		C89.5,1.1,90.6,0.7,91.6,0.6z M90.4,11.2c0.1-0.1,0.2-0.4,0.3-0.6c0.2-0.5,0.3-1.1,0.5-1.7c0.4-1.5,0.8-2.9,1.1-4.4
		c0.1-0.4,0.2-0.7,0.2-0.9c-0.1-0.8-1.3-0.8-1.8-0.4c-0.3,0.3-0.6,1.1-0.7,1.7c-0.4,1.4-0.7,2.5-1,3.8c-0.2,0.8-0.5,1.5-0.5,2.4
		c0.1,0.1,0.1,0.2,0.1,0.3C89,11.7,90,11.6,90.4,11.2z"/>
	<path class="st1" d="M26.6,0.9C26.4,2.9,26.2,5,26,7c0.2-0.2,0.3-0.5,0.4-0.7c0.8-1.8,1.7-3.6,2.5-5.4c0.9,0,1.9,0,2.8,0
		c-0.1,2.1-0.4,4.2-0.5,6.2c1.1-2,2-4.2,3.1-6.3c0.7,0,1.6,0,2.5,0c-2,4.2-3.9,8.4-5.9,12.6c-1,0-1.8,0.1-2.7,0
		c0.2-2.4,0.4-4.6,0.6-7.1c-0.4,0.5-0.6,1.2-0.9,1.8c-0.8,1.8-1.6,3.6-2.4,5.4c-0.8,0-1.7,0-2.8,0c0.1-3.5,0.4-7,0.6-10.4
		c-1.1,0-2.5,0-3.7,0C19.2,4,19,5,18.7,6c1,0.1,2.3,0,3.4,0c-0.1,0.7-0.4,1.4-0.6,2.1c-0.9,0-2.1,0-3.4,0c-0.4,1-0.6,2.1-0.9,3.2
		c1.2,0,2.5,0,3.7,0c-0.2,0.7-0.5,1.4-0.7,2.1c-2.2,0-4.5,0-6.5,0c1-4.2,2.2-8.4,3.3-12.6C20,0.9,23.3,0.9,26.6,0.9z"/>
	<path class="st1" d="M7.5,0.9c1.1,0,2.2,0,3.2,0c0.3,2,0.4,4.1,0.7,6c0.7-2,1.2-4.1,1.8-6.1c0.8,0,1.8-0.1,2.4,0.1
		c-1.1,4.3-2.2,8.3-3.4,12.5c-0.9,0-1.8,0-2.8,0c-0.3-2.4-0.5-4.7-0.9-7c-0.8,2.3-1.3,4.8-2.1,7c-0.8,0-1.7,0-2.4,0
		C5.2,9.2,6.4,5.1,7.5,0.9C7.4,0.9,7.5,0.9,7.5,0.9z"/>
	<path class="st1" d="M42.1,0.9c0.1,1.5,0.2,3,0.3,4.5c1-1.3,1.9-3,2.8-4.5c0.8,0,1.9,0,2.8,0c-1.4,2.2-2.9,4.4-4.4,6.6
		c-0.2,0.3-0.5,0.6-0.6,0.9c-0.2,0.4-0.2,0.9-0.3,1.3c-0.3,1.2-0.7,2.4-1.1,3.7c-1,0-1.9,0-2.8,0c0.3-1.7,0.9-3.3,1.2-5
		c0.1-0.4-0.1-0.7-0.1-1.2c-0.3-2.2-0.6-4.3-0.9-6.4C40.2,0.9,40.9,0.9,42.1,0.9z"/>
	<path class="st1" d="M112,0.9c-0.1,0.7-0.4,1.4-0.6,2.2c-0.7,0.1-1.5,0-2.1,0c-1,3.5-1.8,6.9-2.8,10.3c-0.8,0.1-1.9,0.1-2.8,0
		c0.9-3.5,1.9-6.9,2.7-10.4c-0.6-0.1-1.2,0-1.9,0c0.1-0.7,0.3-1.4,0.5-2.1C107.3,0.9,109.4,0.9,112,0.9z"/>
	<path class="st1" d="M62.2,7.3c0.5,0.3,1.1,0.4,1,1.1c0,0.4-0.2,0.9-0.3,1.3c-0.3,1.1-0.8,2.7-1,3.7c-1,0-1.8,0.1-3,0
		c0.1-1,0.5-2.4,0.8-3.6C59.8,9.5,60,9,59.9,8.7c-0.2-0.6-1.2-0.3-1.9-0.4c-0.6,1.6-1,3.4-1.5,5.1c-1,0-2,0-2.9,0
		c0.5-2.1,1.1-4.2,1.6-6.3c0.5-2.1,1-4.2,1.7-6.2c1.6,0,3.1,0,4.6,0c0.9,0,2.2-0.1,2.7,0.3c1,0.7,0.4,2.1,0.1,3.2
		C64.2,5,64.1,5.6,63.9,6C63.6,6.7,62.8,6.9,62.2,7.3z M60.8,5.9c0.1-0.5,0.5-1.2,0.6-1.8c0.2-1.3-1-0.8-1.8-0.9
		c-0.4,0.9-0.6,2-0.9,3C59.3,6.2,60.5,6.3,60.8,5.9z"/>
	<path class="st1" d="M69.2,1c-0.3,1.4-0.7,2.7-1,4.1c0.4-0.2,0.6-0.6,0.9-1C70.1,3.1,71,2,71.9,1c0.8-0.1,1.9-0.1,2.7,0
		c-0.6,1-1.4,1.9-2.1,2.8c-0.7,0.9-1.4,1.8-2.1,2.7c0.5,2.4,1,4.6,1.5,6.9c-1.3,0.1-2.3,0.1-3.3,0c-0.4-1.8-0.7-3.7-1.1-5.5
		c-0.7,1.8-1.1,3.7-1.7,5.5c-1,0-2,0-3.1,0c0.2-1,0.5-2.1,0.8-3.1c0.3-1,0.5-2.1,0.8-3.1c0.3-1,0.6-2.1,0.9-3.1
		C65.6,3.1,66,2,66.3,1C67.2,0.9,68.3,0.9,69.2,1z"/>
	<path class="st1" d="M80.1,9.6c-0.4,1.2-0.7,2.5-1.1,3.8c-0.8,0.1-2.1,0-2.8,0c1-4.2,2.2-8.3,3.3-12.5c1.6-0.1,3.2,0,4.8,0
		c0.5,0,1.2-0.1,1.6,0C86.6,1.1,87,1.8,87,2.6c0,0.5-0.2,1-0.3,1.5c-0.2,1.1-0.4,1.9-0.8,2.9c-0.3,0.6-0.4,1.3-0.8,1.7
		C83.8,9.8,82.1,9.8,80.1,9.6z M82.7,7.1c0.4-0.6,0.8-1.9,0.9-2.8c0.1-0.3,0.1-0.5,0.1-0.7c-0.1-0.6-1.2-0.6-1.9-0.4
		c-0.4,1.4-0.8,2.8-1.1,4.1C81.3,7.6,82.3,7.4,82.7,7.1z"/>
	<path class="st0" d="M88.5,11.3c0-0.1,0-0.2-0.1-0.3c0-0.9,0.3-1.6,0.5-2.4c0.3-1.2,0.7-2.4,1-3.8c0.2-0.6,0.4-1.4,0.7-1.7
		c0.5-0.4,1.7-0.4,1.8,0.4c0,0.2-0.1,0.6-0.2,0.9c-0.3,1.5-0.7,2.9-1.1,4.4c-0.2,0.6-0.3,1.2-0.5,1.7c-0.1,0.2-0.2,0.5-0.3,0.6
		C90,11.6,89,11.7,88.5,11.3z"/>
	<path class="st0" d="M50.1,11.1c-0.3,0.3-1.2,0.5-1.7,0.2C48,10.8,48.5,9.7,48.7,9c0.5-1.6,0.8-3.1,1.3-4.7C50,4,50.1,3.6,50.2,3.4
		c0.3-0.5,1.8-0.8,1.9,0c0,0.3-0.1,0.7-0.2,1c-0.2,0.9-0.6,2-0.8,2.9C50.8,8.7,50.5,10,50.1,11.1z"/>
	<path class="st0" d="M80.7,7.3c0.4-1.4,0.8-2.8,1.1-4.1c0.6-0.2,1.8-0.2,1.9,0.4c0,0.2,0,0.4-0.1,0.7c-0.2,0.9-0.6,2.2-0.9,2.8
		C82.3,7.4,81.3,7.6,80.7,7.3z"/>
	<path class="st0" d="M58.7,6.2c0.3-1,0.5-2.1,0.9-3c0.8,0.1,2-0.4,1.8,0.9c-0.1,0.6-0.5,1.3-0.6,1.8C60.5,6.3,59.3,6.2,58.7,6.2z"
		/>
	<path class="st0" d="M55.6,1.1c0.3-0.2,0.6-0.5,0.9-0.7c1.8,0,3.9,0,5.7,0c0.6,0,1.2-0.1,1.7,0c0.4,0.1,0.6,0.4,0.9,0.6
		c0.3-0.1,0.5-0.4,0.8-0.6c1.4,0,2.8,0,4.3,0c0,0.5-0.1,0.9-0.2,1.3c0.3-0.1,0.6-0.4,0.9-0.6c0.3-0.2,0.6-0.5,0.8-0.7
		c1.2,0,2.9,0,4.3,0c0.1,0.1-0.1,0.3-0.2,0.4c-1.5,1.9-3,3.9-4.5,5.8c0.5,2.5,1.1,5,1.7,7.5c-1.2,0.9-2.3,1.9-3.5,2.8
		c-1.5,0-2.9,0-4.4,0c-0.1-0.4-0.2-0.8-0.4-1.2c-0.3,0.1-0.6,0.4-0.9,0.6c-0.3,0.2-0.6,0.5-0.9,0.6c-0.6,0.1-1.4,0-2.1,0
		c-2,0-4.1,0-5.9,0c0-0.3,0.2-0.5,0.2-0.9c-0.5,0.2-0.9,0.6-1.4,0.9c-1.2,0-2.5,0-3.7,0c0.1-0.5,0.2-0.9,0.2-1.5
		c-0.5,0.2-1,0.5-1.5,0.8c-1,0.5-2.3,0.9-3.8,0.8c-1.7-0.1-2.5-0.9-3.2-2.1c-0.9,0.6-1.7,1.3-2.6,2c-1.4,0-2.8,0-4,0
		c0.4-1.4,0.8-2.9,1.2-4.4c0.1-0.5,0.3-1,0.4-1.4c0-0.4-0.1-0.9-0.2-1.4c-0.2-1.4-0.3-2.9-0.6-4.4c-0.3,0.3-0.4,0.7-0.6,1.1
		c-1.2,2.5-2.5,5.2-3.7,7.8c-0.8,0.7-1.8,1.4-2.7,2.1c-0.3,0.2-0.6,0.6-0.9,0.7c-0.5,0.1-1.2,0-1.9,0c-0.6,0-1.2,0-1.7,0
		c0.1-0.5,0.2-0.9,0.3-1.4c-0.4,0.1-0.7,0.4-1.1,0.7c-0.3,0.2-0.8,0.7-1.2,0.7c-0.2,0-0.3,0-0.5,0c-0.9,0-1.9,0-2.9,0
		c0-0.3,0.1-0.6,0.1-1c-0.3,0.1-0.5,0.3-0.8,0.5c-0.2,0.2-0.5,0.4-0.7,0.5c-0.4,0.1-1,0-1.5,0c-1.5,0.1-3.7-0.1-5.6,0
		c-0.1-0.2-0.2-0.4-0.4-0.5c-0.3,0.1-0.4,0.4-0.7,0.5c-0.2,0-0.6,0-0.8,0c-0.8,0-1.8,0-2.6,0c-0.1-0.5-0.1-0.9-0.2-1.4
		c-0.7,0.4-1.3,0.9-1.9,1.4c-1.2,0-2.4,0-3.6,0c0.7-3.2,1.7-6.6,2.5-9.9C2.9,6,3.1,5.2,3.4,4.3c0.1-0.4,0.1-0.8,0.3-1.2
		c0.2-0.3,0.5-0.4,0.8-0.7C5.4,1.7,6.2,1,7.1,0.3c1.4,0,2.7,0,4.1,0c0.1,0.3,0.1,0.6,0.2,0.9c0.4,0,0.9-0.8,1.3-0.9
		c0.4-0.1,0.8,0.1,1.2,0.1c4-0.2,9.4,0,13.1,0c0.1,0.3,0,0.6,0.1,0.8c0.5-0.1,0.8-0.7,1.2-0.8c0.5-0.1,1.3,0,1.9,0
		c0.6,0,1.3,0,1.9,0c0.1,0.3,0,0.7,0.1,1c0.6-0.2,1-0.7,1.5-1c1.3,0,2.6,0,3.8,0c0,0.2-0.2,0.3-0.2,0.6c0.4-0.1,0.6-0.4,0.9-0.6
		c1.4,0,2.9,0,4.3,0c0.1,0.4,0,1.1,0.1,1.4c0.7-0.4,1.2-1,1.9-1.4c1.4,0,2.8,0,4.2,0c0.2-0.1,0.1,0.2,0.2,0.1
		C51-0.2,54.2-0.2,55.6,1.1z M47.6,2.4c-0.4,0.6-0.6,1-0.7,1.8c-0.4,1.7-1,3.5-1.3,5.2c-0.2,1-0.8,2.2-0.5,3.4c0.1,0.5,1,1,1.4,1.1
		c1.6,0.6,3.9,0.2,5.1-0.6c0.6-0.4,1.3-1.1,1.6-1.8c0.2-0.5,0.4-1.3,0.6-2.1c0.4-1.4,0.8-2.9,1.1-4.2c0.2-0.7,0.4-1.5,0.5-2.2
		c0-0.3,0-0.6,0-0.8c-0.3-1.6-2.2-1.8-4.2-1.6C49.5,0.6,48.4,1.3,47.6,2.4z M17,0.9c-1.1,4.2-2.2,8.3-3.3,12.6c2,0,4.3,0,6.5,0
		c0.2-0.7,0.5-1.4,0.7-2.1c-1.2-0.1-2.5,0-3.7,0c0.3-1.1,0.5-2.2,0.9-3.2c1.3,0,2.4,0,3.4,0C21.7,7.4,22,6.7,22.1,6
		c-1.1,0-2.4,0-3.4,0C19,5,19.2,4,19.6,3.1c1.2,0,2.6,0,3.7,0c-0.2,3.4-0.5,6.9-0.6,10.4c1.1,0,2,0,2.8,0c0.8-1.8,1.6-3.6,2.4-5.4
		c0.3-0.6,0.5-1.2,0.9-1.8c-0.2,2.4-0.5,4.7-0.6,7.1c0.9,0.1,1.7,0,2.7,0c2-4.2,3.9-8.4,5.9-12.6c-0.9-0.1-1.8,0-2.5,0
		c-1,2.1-2,4.3-3.1,6.3c0.1-2.1,0.4-4.1,0.5-6.2c-0.9-0.1-1.9-0.1-2.8,0c-0.8,1.8-1.7,3.7-2.5,5.4C26.3,6.6,26.3,6.9,26,7
		c0.2-2,0.4-4.1,0.5-6.1C23.3,0.9,20,0.9,17,0.9z M7.4,1c-1,4.2-2.2,8.2-3.2,12.5c0.7,0.1,1.6,0,2.4,0c0.8-2.3,1.3-4.8,2.1-7
		c0.4,2.3,0.5,4.7,0.9,7c0.9,0,1.8,0,2.8,0c1.2-4.2,2.3-8.3,3.4-12.5c-0.6-0.1-1.6,0-2.4-0.1c-0.7,2-1.2,4.1-1.8,6.1
		c-0.3-2-0.5-4-0.7-6C9.7,0.8,8.6,0.9,7.4,1C7.5,0.9,7.4,0.9,7.4,1z M39.2,0.9c0.3,2.2,0.6,4.3,0.9,6.4c0.1,0.4,0.2,0.8,0.1,1.2
		c-0.3,1.6-1,3.3-1.2,5c0.8,0.1,1.8,0,2.8,0c0.4-1.3,0.8-2.5,1.1-3.7c0.1-0.4,0.2-0.9,0.3-1.3c0.1-0.3,0.4-0.6,0.6-0.9
		c1.4-2.3,3-4.4,4.4-6.6c-0.9-0.1-2,0-2.8,0c-1,1.5-1.9,3.2-2.8,4.5c-0.1-1.5-0.2-3-0.3-4.5C40.9,0.9,40.2,0.9,39.2,0.9z M63.9,6
		c0.1-0.4,0.3-1,0.5-1.6c0.3-1.1,0.9-2.5-0.1-3.2c-0.5-0.4-1.9-0.3-2.7-0.3c-1.5,0-3.1,0.1-4.6,0c-0.6,2-1.1,4.1-1.7,6.2
		c-0.5,2.1-1.2,4.2-1.6,6.3c0.9,0.1,1.9,0,2.9,0c0.5-1.7,0.9-3.5,1.5-5.1c0.6,0.1,1.7-0.2,1.9,0.4C60,9,59.8,9.5,59.7,9.9
		c-0.3,1.2-0.7,2.5-0.8,3.6c1.2,0.1,2,0,3,0c0.2-1,0.7-2.6,1-3.7c0.1-0.4,0.3-1,0.3-1.3c0.1-0.8-0.5-0.9-1-1.1
		C62.8,6.9,63.6,6.7,63.9,6z M66.3,1c-0.3,1-0.6,2.1-0.9,3.2c-0.3,1-0.6,2.1-0.9,3.1c-0.3,1-0.5,2.1-0.8,3.1c-0.3,1-0.6,2.1-0.8,3.1
		c1.1,0,2.1,0,3.1,0c0.6-1.9,1-3.8,1.7-5.5c0.4,1.8,0.7,3.7,1.1,5.5c1,0,2,0,3.3,0c-0.5-2.4-1-4.6-1.5-6.9c0.7-0.9,1.4-1.8,2.1-2.7
		C73.3,2.9,74,2,74.6,1c-0.8-0.1-1.9-0.1-2.7,0c-0.9,1-1.9,2.1-2.8,3.1c-0.3,0.3-0.6,0.7-0.9,1c0.3-1.4,0.7-2.7,1-4.1
		C68.3,0.9,67.2,0.9,66.3,1z"/>
</g>
</svg>
